<svg width="400" height="200" viewBox="0 0 400 200" fill="none" xmlns="http://www.w3.org/2000/svg">
  <!-- Fond avec forme hexagonale -->
  <path d="M200 40 L280 80 L280 160 L200 200 L120 160 L120 80 Z" fill="#f4f7f8" stroke="#1d3e53" stroke-width="2"/>
  
  <!-- Lignes de connexion -->
  <line x1="200" y1="40" x2="200" y2="200" stroke="#4d7c8a" stroke-width="1" stroke-dasharray="4 2"/>
  <line x1="120" y1="80" x2="280" y2="80" stroke="#4d7c8a" stroke-width="1" stroke-dasharray="4 2"/>
  <line x1="120" y1="160" x2="280" y2="160" stroke="#4d7c8a" stroke-width="1" stroke-dasharray="4 2"/>
  
  <!-- Icônes -->
  <circle cx="200" cy="80" r="15" fill="#1d3e53"/>
  <text x="195" y="85" font-family="Arial" font-size="18" font-weight="bold" fill="white">?</text>
  
  <circle cx="160" cy="120" r="15" fill="#4d7c8a"/>
  <path d="M154 120 L166 120 M160 114 L160 126" stroke="white" stroke-width="2"/>
  
  <circle cx="240" cy="120" r="15" fill="#5a8fa2"/>
  <path d="M234 120 L246 120" stroke="white" stroke-width="2"/>
  
  <circle cx="200" cy="160" r="15" fill="#3d6370"/>
  <path d="M194 154 L206 166 M194 166 L206 154" stroke="white" stroke-width="2"/>
  
  <!-- Éléments de diagramme -->
  <rect x="140" y="60" width="40" height="20" rx="4" fill="white" stroke="#1d3e53" stroke-width="1"/>
  <text x="147" y="75" font-family="Arial" font-size="10" fill="#1d3e53">Étape 1</text>
  
  <rect x="220" y="60" width="40" height="20" rx="4" fill="white" stroke="#1d3e53" stroke-width="1"/>
  <text x="227" y="75" font-family="Arial" font-size="10" fill="#1d3e53">Étape 2</text>
  
  <rect x="140" y="140" width="40" height="20" rx="4" fill="white" stroke="#1d3e53" stroke-width="1"/>
  <text x="147" y="155" font-family="Arial" font-size="10" fill="#1d3e53">Étape 3</text>
  
  <rect x="220" y="140" width="40" height="20" rx="4" fill="white" stroke="#1d3e53" stroke-width="1"/>
  <text x="227" y="155" font-family="Arial" font-size="10" fill="#1d3e53">Étape 4</text>
  
  <!-- Flèches de connexion -->
  <path d="M180 70 L190 70 L195 80 L200 70 L210 70" stroke="#5a8fa2" stroke-width="1"/>
  <path d="M160 80 L160 110" stroke="#5a8fa2" stroke-width="1"/>
  <path d="M240 80 L240 110" stroke="#5a8fa2" stroke-width="1"/>
  <path d="M160 130 L160 140" stroke="#5a8fa2" stroke-width="1"/>
  <path d="M240 130 L240 140" stroke="#5a8fa2" stroke-width="1"/>
  <path d="M180 150 L190 150 L195 140 L200 150 L210 150" stroke="#5a8fa2" stroke-width="1"/>
</svg> 